<svg xmlns="http://www.w3.org/2000/svg" version="1.1" xmlns:xlink="http://www.w3.org/1999/xlink" xmlns:svgjs="http://svgjs.dev/svgjs" viewBox="0 0 2400 800"><defs><linearGradient x1="50%" y1="0%" x2="50%" y2="100%" id="sssurf-grad"><stop stop-color="hsl(162, 100%, 58%)" stop-opacity="1" offset="0%"></stop><stop stop-color="hsl(270, 73%, 53%)" stop-opacity="1" offset="100%"></stop></linearGradient></defs><g fill="#6767adff" transform="matrix(1,0,0,1,10.8282470703125,226.0233497619629)"><path d="M-10,10C33.75,14.166666666666668,114.58333333333334,38.75,200,30C285.41666666666663,21.25,316.66666666666663,-33.875,400,-32C483.33333333333337,-30.125,516.6666666666666,36.5,600,39C683.3333333333334,41.5,716.6666666666666,-21.25,800,-20C883.3333333333334,-18.75,916.6666666666666,41.875,1000,45C1083.3333333333333,48.125,1116.6666666666667,-3.125,1200,-5C1283.3333333333333,-6.875,1316.6666666666667,37.041666666666664,1400,36C1483.3333333333333,34.958333333333336,1516.6666666666667,-13.541666666666668,1600,-10C1683.3333333333333,-6.458333333333333,1716.6666666666667,52.583333333333336,1800,53C1883.3333333333333,53.416666666666664,1916.6666666666667,-4.875,2000,-8C2083.3333333333335,-11.125,2118.75,34.25,2200,38C2281.25,41.75,2296.25,-65.41666666666667,2390,10C2483.75,85.41666666666667,3252.0833333333335,214.58333333333331,2650,400C2047.9166666666665,585.4166666666667,156.25,795.8333333333334,-500,900" transform="matrix(1,0,0,1,0,35)" opacity="0.05"></path><path d="M-10,10C33.75,14.166666666666668,114.58333333333334,38.75,200,30C285.41666666666663,21.25,316.66666666666663,-33.875,400,-32C483.33333333333337,-30.125,516.6666666666666,36.5,600,39C683.3333333333334,41.5,716.6666666666666,-21.25,800,-20C883.3333333333334,-18.75,916.6666666666666,41.875,1000,45C1083.3333333333333,48.125,1116.6666666666667,-3.125,1200,-5C1283.3333333333333,-6.875,1316.6666666666667,37.041666666666664,1400,36C1483.3333333333333,34.958333333333336,1516.6666666666667,-13.541666666666668,1600,-10C1683.3333333333333,-6.458333333333333,1716.6666666666667,52.583333333333336,1800,53C1883.3333333333333,53.416666666666664,1916.6666666666667,-4.875,2000,-8C2083.3333333333335,-11.125,2118.75,34.25,2200,38C2281.25,41.75,2296.25,-65.41666666666667,2390,10C2483.75,85.41666666666667,3252.0833333333335,214.58333333333331,2650,400C2047.9166666666665,585.4166666666667,156.25,795.8333333333334,-500,900" transform="matrix(1,0,0,1,0,70)" opacity="0.21"></path><path d="M-10,10C33.75,14.166666666666668,114.58333333333334,38.75,200,30C285.41666666666663,21.25,316.66666666666663,-33.875,400,-32C483.33333333333337,-30.125,516.6666666666666,36.5,600,39C683.3333333333334,41.5,716.6666666666666,-21.25,800,-20C883.3333333333334,-18.75,916.6666666666666,41.875,1000,45C1083.3333333333333,48.125,1116.6666666666667,-3.125,1200,-5C1283.3333333333333,-6.875,1316.6666666666667,37.041666666666664,1400,36C1483.3333333333333,34.958333333333336,1516.6666666666667,-13.541666666666668,1600,-10C1683.3333333333333,-6.458333333333333,1716.6666666666667,52.583333333333336,1800,53C1883.3333333333333,53.416666666666664,1916.6666666666667,-4.875,2000,-8C2083.3333333333335,-11.125,2118.75,34.25,2200,38C2281.25,41.75,2296.25,-65.41666666666667,2390,10C2483.75,85.41666666666667,3252.0833333333335,214.58333333333331,2650,400C2047.9166666666665,585.4166666666667,156.25,795.8333333333334,-500,900" transform="matrix(1,0,0,1,0,105)" opacity="0.37"></path><path d="M-10,10C33.75,14.166666666666668,114.58333333333334,38.75,200,30C285.41666666666663,21.25,316.66666666666663,-33.875,400,-32C483.33333333333337,-30.125,516.6666666666666,36.5,600,39C683.3333333333334,41.5,716.6666666666666,-21.25,800,-20C883.3333333333334,-18.75,916.6666666666666,41.875,1000,45C1083.3333333333333,48.125,1116.6666666666667,-3.125,1200,-5C1283.3333333333333,-6.875,1316.6666666666667,37.041666666666664,1400,36C1483.3333333333333,34.958333333333336,1516.6666666666667,-13.541666666666668,1600,-10C1683.3333333333333,-6.458333333333333,1716.6666666666667,52.583333333333336,1800,53C1883.3333333333333,53.416666666666664,1916.6666666666667,-4.875,2000,-8C2083.3333333333335,-11.125,2118.75,34.25,2200,38C2281.25,41.75,2296.25,-65.41666666666667,2390,10C2483.75,85.41666666666667,3252.0833333333335,214.58333333333331,2650,400C2047.9166666666665,585.4166666666667,156.25,795.8333333333334,-500,900" transform="matrix(1,0,0,1,0,140)" opacity="0.53"></path><path d="M-10,10C33.75,14.166666666666668,114.58333333333334,38.75,200,30C285.41666666666663,21.25,316.66666666666663,-33.875,400,-32C483.33333333333337,-30.125,516.6666666666666,36.5,600,39C683.3333333333334,41.5,716.6666666666666,-21.25,800,-20C883.3333333333334,-18.75,916.6666666666666,41.875,1000,45C1083.3333333333333,48.125,1116.6666666666667,-3.125,1200,-5C1283.3333333333333,-6.875,1316.6666666666667,37.041666666666664,1400,36C1483.3333333333333,34.958333333333336,1516.6666666666667,-13.541666666666668,1600,-10C1683.3333333333333,-6.458333333333333,1716.6666666666667,52.583333333333336,1800,53C1883.3333333333333,53.416666666666664,1916.6666666666667,-4.875,2000,-8C2083.3333333333335,-11.125,2118.75,34.25,2200,38C2281.25,41.75,2296.25,-65.41666666666667,2390,10C2483.75,85.41666666666667,3252.0833333333335,214.58333333333331,2650,400C2047.9166666666665,585.4166666666667,156.25,795.8333333333334,-500,900" transform="matrix(1,0,0,1,0,175)" opacity="0.68"></path><path d="M-10,10C33.75,14.166666666666668,114.58333333333334,38.75,200,30C285.41666666666663,21.25,316.66666666666663,-33.875,400,-32C483.33333333333337,-30.125,516.6666666666666,36.5,600,39C683.3333333333334,41.5,716.6666666666666,-21.25,800,-20C883.3333333333334,-18.75,916.6666666666666,41.875,1000,45C1083.3333333333333,48.125,1116.6666666666667,-3.125,1200,-5C1283.3333333333333,-6.875,1316.6666666666667,37.041666666666664,1400,36C1483.3333333333333,34.958333333333336,1516.6666666666667,-13.541666666666668,1600,-10C1683.3333333333333,-6.458333333333333,1716.6666666666667,52.583333333333336,1800,53C1883.3333333333333,53.416666666666664,1916.6666666666667,-4.875,2000,-8C2083.3333333333335,-11.125,2118.75,34.25,2200,38C2281.25,41.75,2296.25,-65.41666666666667,2390,10C2483.75,85.41666666666667,3252.0833333333335,214.58333333333331,2650,400C2047.9166666666665,585.4166666666667,156.25,795.8333333333334,-500,900" transform="matrix(1,0,0,1,0,210)" opacity="0.84"></path><path d="M-10,10C33.75,14.166666666666668,114.58333333333334,38.75,200,30C285.41666666666663,21.25,316.66666666666663,-33.875,400,-32C483.33333333333337,-30.125,516.6666666666666,36.5,600,39C683.3333333333334,41.5,716.6666666666666,-21.25,800,-20C883.3333333333334,-18.75,916.6666666666666,41.875,1000,45C1083.3333333333333,48.125,1116.6666666666667,-3.125,1200,-5C1283.3333333333333,-6.875,1316.6666666666667,37.041666666666664,1400,36C1483.3333333333333,34.958333333333336,1516.6666666666667,-13.541666666666668,1600,-10C1683.3333333333333,-6.458333333333333,1716.6666666666667,52.583333333333336,1800,53C1883.3333333333333,53.416666666666664,1916.6666666666667,-4.875,2000,-8C2083.3333333333335,-11.125,2118.75,34.25,2200,38C2281.25,41.75,2296.25,-65.41666666666667,2390,10C2483.75,85.41666666666667,3252.0833333333335,214.58333333333331,2650,400C2047.9166666666665,585.4166666666667,156.25,795.8333333333334,-500,900" transform="matrix(1,0,0,1,0,245)" opacity="1"></path></g></svg>